<svg xmlns="http://www.w3.org/2000/svg" xmlns:xlink="http://www.w3.org/1999/xlink" width="500" zoomAndPan="magnify" viewBox="0 0 375 374.999991" height="500" preserveAspectRatio="xMidYMid meet" version="1.0"><defs><g/><clipPath id="5a30f87976"><rect x="0" width="290" y="0" height="321"/></clipPath></defs><rect x="-37.5" width="450" fill="#ffffff" y="-37.499999" height="449.999989" fill-opacity="1"/><rect x="-37.5" width="450" fill="#ffffff" y="-37.499999" height="449.999989" fill-opacity="1"/><g transform="matrix(1, 0, 0, 1, 43, 0)"><g clip-path="url(#5a30f87976)"><g fill="#000000" fill-opacity="1"><g transform="translate(0.532122, 246.080017)"><g><path d="M 152.75 -175.734375 L 196 -175.734375 L 196 0 C 196 13.289062 193.179688 24.382812 187.546875 33.28125 C 181.921875 42.1875 174.65625 49.285156 165.75 54.578125 C 156.851562 59.867188 147.28125 63.695312 137.03125 66.0625 C 126.78125 68.425781 117.035156 69.609375 107.796875 69.609375 C 96.984375 69.609375 87.410156 68.59375 79.078125 66.5625 C 70.742188 64.539062 64.097656 62.066406 59.140625 59.140625 L 59.140625 23.3125 C 64.097656 26.238281 70.6875 28.660156 78.90625 30.578125 C 87.132812 32.492188 96.765625 33.453125 107.796875 33.453125 C 123.347656 33.453125 134.726562 29.957031 141.9375 22.96875 C 149.144531 15.988281 152.75 8.332031 152.75 0 L 152.75 -25 L 150.375 -25 C 148.570312 -21.394531 145.304688 -17.335938 140.578125 -12.828125 C 135.847656 -8.328125 129.820312 -4.5 122.5 -1.34375 C 115.175781 1.800781 106.445312 3.375 96.3125 3.375 C 86.625 3.375 76.65625 1.519531 66.40625 -2.1875 C 56.15625 -5.90625 46.75 -11.539062 38.1875 -19.09375 C 29.625 -26.644531 22.695312 -36.109375 17.40625 -47.484375 C 12.113281 -58.859375 9.46875 -72.316406 9.46875 -87.859375 C 9.46875 -103.410156 12.113281 -116.875 17.40625 -128.25 C 22.695312 -139.625 29.625 -149.082031 38.1875 -156.625 C 46.75 -164.175781 56.15625 -169.8125 66.40625 -173.53125 C 76.65625 -177.25 86.625 -179.109375 96.3125 -179.109375 C 106.445312 -179.109375 115.175781 -177.53125 122.5 -174.375 C 129.820312 -171.21875 135.847656 -167.441406 140.578125 -163.046875 C 145.304688 -158.660156 148.570312 -154.550781 150.375 -150.71875 L 152.75 -150.71875 Z M 102.390625 -35.140625 C 110.953125 -35.140625 119.117188 -37.109375 126.890625 -41.046875 C 134.660156 -44.992188 141.082031 -50.851562 146.15625 -58.625 C 151.226562 -66.40625 153.765625 -76.148438 153.765625 -87.859375 C 153.765625 -99.578125 151.226562 -109.320312 146.15625 -117.09375 C 141.082031 -124.863281 134.660156 -130.71875 126.890625 -134.65625 C 119.117188 -138.601562 110.953125 -140.578125 102.390625 -140.578125 C 94.054688 -140.578125 86.003906 -138.601562 78.234375 -134.65625 C 70.460938 -130.71875 64.097656 -124.863281 59.140625 -117.09375 C 54.179688 -109.320312 51.703125 -99.578125 51.703125 -87.859375 C 51.703125 -76.148438 54.179688 -66.40625 59.140625 -58.625 C 64.097656 -50.851562 70.460938 -44.992188 78.234375 -41.046875 C 86.003906 -37.109375 94.054688 -35.140625 102.390625 -35.140625 Z M 102.390625 -35.140625 "/></g></g></g><g fill="#ff6c4b" fill-opacity="1"><g transform="translate(214.791943, 246.080017)"><g><path d="M 36.828125 3.375 C 30.078125 3.375 24.222656 1.066406 19.265625 -3.546875 C 14.304688 -8.160156 11.828125 -14.1875 11.828125 -21.625 C 11.828125 -29.0625 14.304688 -35.085938 19.265625 -39.703125 C 24.222656 -44.328125 30.078125 -46.640625 36.828125 -46.640625 C 43.585938 -46.640625 49.445312 -44.328125 54.40625 -39.703125 C 59.363281 -35.085938 61.84375 -29.0625 61.84375 -21.625 C 61.84375 -14.1875 59.363281 -8.160156 54.40625 -3.546875 C 49.445312 1.066406 43.585938 3.375 36.828125 3.375 Z M 36.828125 3.375 "/></g></g></g></g></g></svg>