<svg xmlns="http://www.w3.org/2000/svg" xmlns:xlink="http://www.w3.org/1999/xlink" width="500" zoomAndPan="magnify" viewBox="0 0 375 374.999991" height="500" preserveAspectRatio="xMidYMid meet" version="1.0"><defs><clipPath id="af08d160b6"><path d="M 32 0 L 343 0 L 343 375 L 32 375 Z M 32 0 " clip-rule="nonzero"/></clipPath><clipPath id="73b5465ba4"><path d="M 245.984375 11.367188 C 227.355469 3.835938 207.703125 0 187.5 0 C 167.296875 0 147.644531 3.835938 129.015625 11.367188 C 109.773438 19.175781 92.449219 30.679688 77.65625 45.472656 C 48.757812 74.4375 32.597656 112.925781 32.1875 153.808594 C 31.773438 194.621094 47.113281 233.382812 75.398438 262.828125 L 75.328125 262.898438 L 187.5 375.070312 L 299.054688 263.511719 L 298.988281 263.445312 C 327.542969 234 343.089844 195.238281 342.8125 154.21875 C 342.539062 113.128906 326.378906 74.574219 297.34375 45.472656 C 282.484375 30.679688 265.226562 19.175781 245.984375 11.367188 Z M 245.984375 11.367188 " clip-rule="nonzero"/></clipPath><clipPath id="13cf8b2883"><path d="M 47 14.371094 L 328 14.371094 L 328 295.621094 L 47 295.621094 Z M 47 14.371094 " clip-rule="nonzero"/></clipPath><clipPath id="aa519175f5"><path d="M 187.429688 14.519531 C 109.898438 14.519531 47.046875 77.371094 47.046875 154.902344 C 47.046875 232.4375 109.898438 295.289062 187.429688 295.289062 C 264.964844 295.289062 327.816406 232.4375 327.816406 154.902344 C 327.816406 77.371094 264.964844 14.519531 187.429688 14.519531 Z M 187.429688 14.519531 " clip-rule="nonzero"/></clipPath><clipPath id="17e350570f"><path d="M 123 24.542969 L 319.597656 24.542969 L 319.597656 248 L 123 248 Z M 123 24.542969 " clip-rule="nonzero"/></clipPath><clipPath id="52958052be"><path d="M 59 129 L 174 129 L 174 283.292969 L 59 283.292969 Z M 59 129 " clip-rule="nonzero"/></clipPath><clipPath id="f1449972b6"><path d="M 139 80.28125 L 236 80.28125 L 236 194 L 139 194 Z M 139 80.28125 " clip-rule="nonzero"/></clipPath><clipPath id="916556c678"><path d="M 196 149 L 238.398438 149 L 238.398438 226 L 196 226 Z M 196 149 " clip-rule="nonzero"/></clipPath></defs><g clip-path="url(#af08d160b6)"><g clip-path="url(#73b5465ba4)"><path fill="#fd6a00" d="M 32.1875 0 L 342.8125 0 L 342.8125 375 L 32.1875 375 Z M 32.1875 0 " fill-opacity="1" fill-rule="nonzero"/></g></g><g clip-path="url(#13cf8b2883)"><g clip-path="url(#aa519175f5)"><path fill="#ffffff" d="M 32.1875 0 L 342.8125 0 L 342.8125 375 L 32.1875 375 Z M 32.1875 0 " fill-opacity="1" fill-rule="nonzero"/></g></g><g clip-path="url(#17e350570f)"><path fill="#fd6a00" d="M 188.871094 24.65625 C 191.082031 24.65625 192.683594 24.636719 194.269531 24.65625 C 198.164062 24.707031 202.015625 25.160156 205.871094 25.609375 C 215.871094 26.769531 225.523438 29.257812 234.949219 32.742188 C 247.207031 37.28125 258.496094 43.550781 268.847656 51.523438 C 275.324219 56.503906 281.285156 62.039062 286.6875 68.164062 C 293.929688 76.371094 300.046875 85.359375 305.019531 95.125 C 308.542969 102.050781 311.472656 109.214844 313.699219 116.644531 C 315.191406 121.632812 316.484375 126.695312 317.292969 131.878906 C 317.910156 135.792969 318.378906 139.707031 318.78125 143.644531 C 319.3125 149.023438 319.382812 154.402344 319.160156 159.773438 C 318.945312 164.925781 318.378906 170.058594 317.550781 175.171875 C 313.972656 197.164062 305.285156 216.886719 291.667969 234.480469 C 288.304688 238.816406 284.636719 242.882812 280.753906 246.765625 C 280.078125 247.433594 279.8125 247.175781 279.402344 246.601562 C 277.9375 244.585938 277.957031 244.625 279.699219 242.832031 C 291.667969 230.484375 300.972656 216.40625 307.210938 200.328125 C 309.179688 195.265625 310.898438 190.132812 312.203125 184.875 C 313.183594 180.871094 314.003906 176.820312 314.566406 172.722656 C 315.222656 167.988281 315.664062 163.246094 315.847656 158.460938 C 315.929688 156.226562 316.125 153.972656 315.980469 151.75 C 315.726562 147.832031 315.5625 143.917969 315.089844 140.015625 C 314.351562 133.816406 313.207031 127.730469 311.617188 121.703125 C 309.875 115.117188 307.589844 108.722656 304.773438 102.503906 C 299.597656 91.054688 292.875 80.59375 284.585938 71.15625 C 272.957031 57.90625 259.183594 47.488281 243.25 39.925781 C 236.40625 36.675781 229.292969 34.09375 222 32.125 C 216.96875 30.773438 211.84375 29.707031 206.648438 29.0625 C 203.113281 28.621094 199.578125 28.335938 196.042969 28.058594 C 192.199219 27.761719 188.359375 27.792969 184.535156 27.925781 C 181.15625 28.046875 177.761719 28.347656 174.390625 28.796875 C 170.847656 29.277344 167.320312 29.84375 163.816406 30.539062 C 158.285156 31.636719 152.851562 33.132812 147.535156 35.007812 C 140.011719 37.648438 132.808594 40.96875 125.933594 44.996094 C 125.574219 45.210938 125.382812 45.222656 125.03125 44.90625 C 123.015625 42.988281 123.023438 42.785156 125.421875 41.429688 C 135.035156 36 145.179688 31.851562 155.835938 28.972656 C 160.875 27.609375 165.988281 26.542969 171.183594 25.867188 C 174.351562 25.457031 177.515625 25.199219 180.683594 24.871094 C 183.625 24.542969 186.554688 24.832031 188.871094 24.65625 Z M 188.871094 24.65625 " fill-opacity="1" fill-rule="nonzero"/></g><path fill="#fd6a00" d="M 306.464844 152.804688 C 306.433594 157.105469 306.585938 160.304688 306.195312 163.46875 C 305.601562 168.285156 305.078125 173.101562 304.085938 177.878906 C 301.902344 188.296875 298.398438 198.21875 293.574219 207.675781 C 289.257812 216.128906 283.960938 223.917969 277.730469 231.078125 C 269.082031 241.019531 259.050781 249.257812 247.617188 255.785156 C 240.15625 260.035156 232.335938 263.4375 224.121094 265.980469 C 218.226562 267.804688 212.253906 269.257812 206.148438 270.109375 C 202.664062 270.589844 199.148438 270.929688 195.625 271.15625 C 192.148438 271.378906 188.675781 271.378906 185.210938 271.289062 C 180.273438 271.15625 175.363281 270.570312 170.476562 269.832031 C 165.855469 269.136719 161.304688 268.109375 156.839844 266.839844 C 147.996094 264.328125 139.550781 260.816406 131.527344 256.308594 C 122.308594 251.132812 113.945312 244.820312 106.402344 237.421875 C 104.804688 235.855469 104.816406 235.925781 106.609375 234.5625 C 107.347656 234 107.714844 234.152344 108.300781 234.726562 C 116.085938 242.546875 124.828125 249.09375 134.511719 254.390625 C 142.976562 259.023438 151.890625 262.527344 161.253906 264.863281 C 166.796875 266.246094 172.394531 267.34375 178.109375 267.742188 C 180.425781 267.90625 182.734375 268.058594 185.046875 268.203125 C 186.839844 268.316406 188.625 268.46875 190.417969 268.386719 C 196.78125 268.089844 203.132812 267.671875 209.414062 266.503906 C 215.605469 265.355469 221.679688 263.808594 227.582031 261.6875 C 238.097656 257.90625 247.871094 252.691406 256.867188 246.039062 C 264.707031 240.25 271.695312 233.578125 277.855469 226.015625 C 283.5625 219.007812 288.386719 211.445312 292.3125 203.308594 C 295.234375 197.253906 297.539062 190.972656 299.371094 184.507812 C 300.847656 179.324219 301.894531 174.046875 302.660156 168.726562 C 303.039062 166.113281 303.09375 163.460938 303.335938 160.835938 C 303.625 157.90625 303.59375 154.964844 303.542969 152.023438 C 303.429688 144.339844 302.519531 136.746094 300.878906 129.226562 C 299.074219 120.914062 296.296875 112.953125 292.730469 105.25 C 291.390625 102.359375 289.902344 99.539062 288.285156 96.792969 C 287.835938 96.027344 287.988281 95.65625 288.582031 95.226562 C 288.746094 95.105469 288.921875 94.992188 289.054688 94.835938 C 289.875 93.957031 290.324219 94.179688 290.898438 95.207031 C 295.949219 104.078125 299.84375 113.425781 302.507812 123.273438 C 303.878906 128.355469 304.957031 133.5 305.570312 138.746094 C 306.144531 143.777344 306.617188 148.828125 306.464844 152.804688 Z M 306.464844 152.804688 " fill-opacity="1" fill-rule="nonzero"/><g clip-path="url(#52958052be)"><path fill="#fd6a00" d="M 61.964844 129.328125 C 62.785156 129.605469 63.550781 129.757812 64.207031 130.105469 C 65.34375 130.703125 65.097656 131.757812 64.90625 132.761719 C 64.136719 136.683594 63.695312 140.640625 63.398438 144.636719 C 63.101562 148.539062 62.84375 152.433594 62.957031 156.347656 C 63.082031 160.558594 63.417969 164.761719 63.878906 168.953125 C 64.523438 174.855469 65.664062 180.65625 67.128906 186.394531 C 69.363281 195.132812 72.609375 203.496094 76.707031 211.527344 C 83.050781 223.96875 91.238281 235.066406 101.230469 244.808594 C 109.34375 252.730469 118.363281 259.441406 128.28125 264.945312 C 135.832031 269.136719 143.710938 272.546875 151.972656 275.078125 C 157.390625 276.738281 162.863281 278.121094 168.46875 279.003906 C 168.980469 279.085938 169.503906 279.15625 170.015625 279.257812 C 170.824219 279.414062 171.59375 279.628906 172.054688 280.53125 C 172.507812 281.410156 173.203125 282.160156 173.675781 283.113281 C 136.621094 277.925781 106.382812 260.9375 84.382812 230.484375 C 62.457031 200.125 55.640625 166.144531 61.964844 129.328125 Z M 61.964844 129.328125 " fill-opacity="1" fill-rule="nonzero"/></g><path fill="#fd6a00" d="M 213.484375 38.910156 C 212.265625 39.769531 211.300781 40.375 210.429688 41.09375 C 209.847656 41.574219 209.324219 41.214844 208.8125 41.132812 C 205.203125 40.507812 201.585938 40.128906 197.9375 39.832031 C 194.238281 39.535156 190.539062 39.277344 186.832031 39.421875 C 182.085938 39.605469 177.34375 39.976562 172.640625 40.664062 C 167.054688 41.472656 161.574219 42.679688 156.171875 44.308594 C 141.128906 48.859375 127.613281 56.226562 115.574219 66.320312 C 104.4375 75.65625 95.429688 86.742188 88.480469 99.480469 C 83.859375 107.941406 80.324219 116.859375 78.132812 126.273438 C 77.867188 127.402344 77.363281 127.636719 76.453125 127.277344 C 75.929688 127.074219 75.398438 127.21875 74.667969 127.023438 C 82.804688 95.042969 100.480469 70.007812 128.875 53.0625 C 155.023438 37.445312 183.277344 33.101562 213.484375 38.910156 Z M 213.484375 38.910156 " fill-opacity="1" fill-rule="nonzero"/><g clip-path="url(#f1449972b6)"><path fill="#fd6a00" d="M 218.378906 103.074219 C 212.082031 101.320312 208.382812 94.769531 210.136719 88.472656 C 211.015625 85.316406 209.171875 82.050781 206.015625 81.171875 C 202.863281 80.292969 199.59375 82.136719 198.714844 85.292969 L 179.847656 153.046875 C 177.015625 150.132812 173.40625 147.90625 169.214844 146.738281 C 156.574219 143.21875 143.429688 150.636719 139.910156 163.277344 C 136.390625 175.917969 143.8125 189.058594 156.449219 192.582031 C 169.085938 196.101562 182.230469 188.679688 185.75 176.042969 L 204.628906 108.242188 C 207.449219 111.128906 211.035156 113.339844 215.195312 114.496094 C 221.492188 116.25 225.191406 122.800781 223.4375 129.097656 C 222.558594 132.253906 224.402344 135.519531 227.554688 136.398438 C 230.710938 137.277344 233.980469 135.433594 234.859375 132.277344 C 238.371094 119.683594 230.976562 106.582031 218.378906 103.074219 Z M 218.378906 103.074219 " fill-opacity="1" fill-rule="nonzero"/></g><g clip-path="url(#916556c678)"><path fill="#fd6a00" d="M 220.230469 158.085938 C 216.300781 159.082031 212.292969 156.695312 211.296875 152.765625 C 210.796875 150.796875 208.796875 149.605469 206.828125 150.105469 C 204.863281 150.605469 203.671875 152.605469 204.167969 154.570312 L 214.890625 196.847656 C 212.46875 196.152344 209.839844 196.066406 207.226562 196.730469 C 199.339844 198.730469 194.550781 206.773438 196.550781 214.65625 C 198.550781 222.542969 206.59375 227.328125 214.480469 225.328125 C 222.363281 223.328125 227.152344 215.285156 225.152344 207.402344 L 214.425781 165.097656 C 216.832031 165.785156 219.441406 165.867188 222.035156 165.210938 C 225.964844 164.210938 229.972656 166.597656 230.96875 170.527344 C 231.46875 172.496094 233.46875 173.6875 235.4375 173.1875 C 237.402344 172.6875 238.597656 170.6875 238.097656 168.722656 C 236.105469 160.863281 228.089844 156.09375 220.230469 158.085938 Z M 220.230469 158.085938 " fill-opacity="1" fill-rule="nonzero"/></g></svg>